<?xml version="1.0"?>
<svg xmlns="http://www.w3.org/2000/svg" xmlns:xlink="http://www.w3.org/1999/xlink" xmlns:svgjs="http://svgjs.com/svgjs" version="1.1" width="512" height="512" x="0" y="0" viewBox="0 0 512 512" style="enable-background:new 0 0 512 512" xml:space="preserve" class=""><g><path xmlns="http://www.w3.org/2000/svg" d="m494.384 242.192c-8.692-12.375-19.972-22.43-33.062-29.563 1.057-6.177 1.59-12.436 1.59-18.715 0-61.181-49.775-110.956-110.957-110.956-11.701 0-23.1 1.787-34.043 5.326-12.049-20.074-28.597-37.151-48.452-49.885-24.462-15.689-52.818-23.982-82.002-23.982-83.858 0-152.081 68.223-152.081 152.081 0 17.315 2.852 34.157 8.495 50.239-27.032 17.81-43.872 48.368-43.872 81.273 0 53.623 43.626 97.248 97.248 97.248h90.419v-5.354c-29.392-21.665-46.701-55.653-46.701-92.498-.001-43.459 24.078-82.738 62.839-102.507l17.19-8.767 19.764 87.398h30.482l19.764-87.408 17.189 8.766c38.762 19.768 62.841 59.051 62.84 102.518 0 36.857-17.31 70.854-46.701 92.522v5.329h90.419c53.623 0 97.248-43.625 97.248-97.249 0-20.109-6.091-39.41-17.616-55.816z" fill="#e6aa67" data-original="#000000" style=""/><path xmlns="http://www.w3.org/2000/svg" d="m294.333 373.752 6.991-4.415c24.865-15.703 39.71-42.594 39.71-71.932.001-25.337-11.072-48.754-29.808-64.692l-16.012 70.815h-78.429l-16.012-70.804c-18.735 15.937-29.809 39.35-29.808 64.681 0 29.323 14.845 56.204 39.71 71.906l6.991 4.415v123.857h76.666v-123.831z" fill="#e6aa67" data-original="#000000" style=""/></g></svg>
