<?xml version="1.0"?>
<svg xmlns="http://www.w3.org/2000/svg" xmlns:xlink="http://www.w3.org/1999/xlink" xmlns:svgjs="http://svgjs.com/svgjs" version="1.1" width="512" height="512" x="0" y="0" viewBox="0 0 512 512" style="enable-background:new 0 0 512 512" xml:space="preserve" class=""><g><g xmlns="http://www.w3.org/2000/svg"><circle cx="106" cy="196" r="15" fill="#e6aa67" data-original="#000000" style="" class=""/><circle cx="406" cy="136" r="15" fill="#e6aa67" data-original="#000000" style="" class=""/><circle cx="226" cy="196" r="15" fill="#e6aa67" data-original="#000000" style="" class=""/><path d="m497 30h-226v-15c0-8.291-6.709-15-15-15s-15 6.709-15 15v15h-226c-8.291 0-15 6.709-15 15v331c0 8.291 6.709 15 15 15h121.007l-72.004 97.006c-4.98 6.621-3.633 16.025 3.003 20.991 6.645 4.982 16.044 3.618 20.991-3.003l85.496-114.994h67.507v106c0 8.291 6.709 15 15 15s15-6.709 15-15v-106h67.507l85.496 114.994c4.951 6.627 14.352 7.982 20.991 3.003 6.636-4.966 7.983-14.37 3.003-20.991l-72.004-97.006h121.007c8.291 0 15-6.709 15-15v-331c0-8.291-6.709-15-15-15zm-391 121c24.814 0 45 20.186 45 45s-20.186 45-45 45-45-20.186-45-45 20.186-45 45-45zm10.606 154.395c5.859 5.859 5.859 15.352 0 21.211s-15.352 5.859-21.211 0l-4.395-4.395-4.395 4.395c-5.859 5.859-15.352 5.859-21.211 0s-5.859-15.352 0-21.211l4.395-4.395-4.395-4.395c-5.859-5.859-5.859-15.352 0-21.211s15.352-5.859 21.211 0l4.395 4.395 4.395-4.395c5.859-5.859 15.352-5.859 21.211 0s5.859 15.352 0 21.211l-4.395 4.395zm90 0c5.859 5.859 5.859 15.352 0 21.211s-15.352 5.859-21.211 0l-4.395-4.395-4.395 4.395c-5.859 5.859-15.352 5.859-21.211 0s-5.859-15.352 0-21.211l4.395-4.395-4.395-4.395c-5.859-5.859-5.859-15.352 0-21.211s15.352-5.859 21.211 0l4.395 4.395 4.395-4.395c5.859-5.859 15.352-5.859 21.211 0s5.859 15.352 0 21.211l-4.395 4.395zm-25.606-109.395c0-24.814 20.186-45 45-45s45 20.186 45 45-20.186 45-45 45-45-20.186-45-45zm115.606 109.395c5.859 5.859 5.859 15.352 0 21.211s-15.352 5.859-21.211 0l-4.395-4.395-4.395 4.395c-5.859 5.859-15.352 5.859-21.211 0s-5.859-15.352 0-21.211l4.395-4.395-4.395-4.395c-5.859-5.859-5.859-15.352 0-21.211s15.352-5.859 21.211 0l4.395 4.395 4.395-4.395c5.859-5.859 15.352-5.859 21.211 0s5.859 15.352 0 21.211l-4.395 4.395zm124.394-49.395c0 24.814-20.186 45-45 45h-30c-8.291 0-15-6.709-15-15s6.709-15 15-15h30c8.276 0 15-6.724 15-15v-30c0-8.291 6.709-15 15-15s15 6.709 15 15zm-15-75c-24.814 0-45-20.186-45-45s20.186-45 45-45 45 20.186 45 45-20.185 45-45 45z" fill="#e6aa67" data-original="#000000" style="" class=""/></g></g></svg>
